<mxfile host="Electron" modified="2024-02-27T13:49:25.577Z" agent="Mozilla/5.0 (Windows NT 10.0; Win64; x64) AppleWebKit/537.36 (KHTML, like Gecko) draw.io/23.1.5 Chrome/120.0.6099.109 Electron/28.1.0 Safari/537.36" etag="LDKZ42SF-xCo8HFaZgls" version="23.1.5" type="device">
  <diagram name="Page-1" id="2YBvvXClWsGukQMizWep">
    <mxGraphModel dx="985" dy="530" grid="1" gridSize="10" guides="1" tooltips="1" connect="1" arrows="1" fold="1" page="1" pageScale="1" pageWidth="850" pageHeight="1100" math="0" shadow="0">
      <root>
        <mxCell id="0" />
        <mxCell id="1" parent="0" />
        <mxCell id="aM9ryv3xv72pqoxQDRHE-1" value=":Scraper" style="shape=umlLifeline;perimeter=lifelinePerimeter;whiteSpace=wrap;html=1;container=0;dropTarget=0;collapsible=0;recursiveResize=0;outlineConnect=0;portConstraint=eastwest;newEdgeStyle={&quot;edgeStyle&quot;:&quot;elbowEdgeStyle&quot;,&quot;elbow&quot;:&quot;vertical&quot;,&quot;curved&quot;:0,&quot;rounded&quot;:0};" parent="1" vertex="1">
          <mxGeometry x="120" y="60" width="100" height="370" as="geometry" />
        </mxCell>
        <mxCell id="aM9ryv3xv72pqoxQDRHE-2" value="" style="html=1;points=[];perimeter=orthogonalPerimeter;outlineConnect=0;targetShapes=umlLifeline;portConstraint=eastwest;newEdgeStyle={&quot;edgeStyle&quot;:&quot;elbowEdgeStyle&quot;,&quot;elbow&quot;:&quot;vertical&quot;,&quot;curved&quot;:0,&quot;rounded&quot;:0};" parent="aM9ryv3xv72pqoxQDRHE-1" vertex="1">
          <mxGeometry x="45" y="70" width="10" height="190" as="geometry" />
        </mxCell>
        <mxCell id="v1EuqWUjBjIq2CPRRQix-3" value="" style="edgeStyle=elbowEdgeStyle;rounded=0;orthogonalLoop=1;jettySize=auto;html=1;elbow=vertical;curved=0;" parent="aM9ryv3xv72pqoxQDRHE-1" source="aM9ryv3xv72pqoxQDRHE-2" edge="1">
          <mxGeometry relative="1" as="geometry">
            <mxPoint x="55" y="139.94871794871796" as="targetPoint" />
          </mxGeometry>
        </mxCell>
        <mxCell id="aM9ryv3xv72pqoxQDRHE-5" value=":Webseite" style="shape=umlLifeline;perimeter=lifelinePerimeter;whiteSpace=wrap;html=1;container=0;dropTarget=0;collapsible=0;recursiveResize=0;outlineConnect=0;portConstraint=eastwest;newEdgeStyle={&quot;edgeStyle&quot;:&quot;elbowEdgeStyle&quot;,&quot;elbow&quot;:&quot;vertical&quot;,&quot;curved&quot;:0,&quot;rounded&quot;:0};" parent="1" vertex="1">
          <mxGeometry x="280" y="60" width="100" height="370" as="geometry" />
        </mxCell>
        <mxCell id="aM9ryv3xv72pqoxQDRHE-6" value="" style="html=1;points=[];perimeter=orthogonalPerimeter;outlineConnect=0;targetShapes=umlLifeline;portConstraint=eastwest;newEdgeStyle={&quot;edgeStyle&quot;:&quot;elbowEdgeStyle&quot;,&quot;elbow&quot;:&quot;vertical&quot;,&quot;curved&quot;:0,&quot;rounded&quot;:0};" parent="aM9ryv3xv72pqoxQDRHE-5" vertex="1">
          <mxGeometry x="45" y="80" width="10" height="80" as="geometry" />
        </mxCell>
        <mxCell id="v1EuqWUjBjIq2CPRRQix-4" value="" style="endArrow=classic;html=1;rounded=0;" parent="1" target="aM9ryv3xv72pqoxQDRHE-6" edge="1">
          <mxGeometry relative="1" as="geometry">
            <mxPoint x="174.98717948717945" y="150" as="sourcePoint" />
            <mxPoint x="345" y="150" as="targetPoint" />
          </mxGeometry>
        </mxCell>
        <mxCell id="v1EuqWUjBjIq2CPRRQix-5" value="getData" style="edgeLabel;resizable=0;html=1;align=center;verticalAlign=middle;" parent="v1EuqWUjBjIq2CPRRQix-4" connectable="0" vertex="1">
          <mxGeometry relative="1" as="geometry">
            <mxPoint y="-10" as="offset" />
          </mxGeometry>
        </mxCell>
        <mxCell id="v1EuqWUjBjIq2CPRRQix-6" value="getData:Wechselkurse" style="endArrow=open;endSize=12;dashed=1;html=1;rounded=0;" parent="1" source="aM9ryv3xv72pqoxQDRHE-6" target="aM9ryv3xv72pqoxQDRHE-2" edge="1">
          <mxGeometry x="0.0258" y="-10" width="160" relative="1" as="geometry">
            <mxPoint x="310" y="190" as="sourcePoint" />
            <mxPoint x="180" y="190" as="targetPoint" />
            <mxPoint as="offset" />
          </mxGeometry>
        </mxCell>
        <mxCell id="v1EuqWUjBjIq2CPRRQix-7" value=":Wechselkursliste" style="shape=umlLifeline;perimeter=lifelinePerimeter;whiteSpace=wrap;html=1;container=1;dropTarget=0;collapsible=0;recursiveResize=0;outlineConnect=0;portConstraint=eastwest;newEdgeStyle={&quot;curved&quot;:0,&quot;rounded&quot;:0};" parent="1" vertex="1">
          <mxGeometry x="400" y="60" width="100" height="750" as="geometry" />
        </mxCell>
        <mxCell id="v1EuqWUjBjIq2CPRRQix-9" value="" style="html=1;points=[[0,0,0,0,5],[0,1,0,0,-5],[1,0,0,0,5],[1,1,0,0,-5]];perimeter=orthogonalPerimeter;outlineConnect=0;targetShapes=umlLifeline;portConstraint=eastwest;newEdgeStyle={&quot;curved&quot;:0,&quot;rounded&quot;:0};" parent="v1EuqWUjBjIq2CPRRQix-7" vertex="1">
          <mxGeometry x="45" y="240" width="10" height="30" as="geometry" />
        </mxCell>
        <mxCell id="v1EuqWUjBjIq2CPRRQix-17" value="" style="html=1;points=[[0,0,0,0,5],[0,1,0,0,-5],[1,0,0,0,5],[1,1,0,0,-5]];perimeter=orthogonalPerimeter;outlineConnect=0;targetShapes=umlLifeline;portConstraint=eastwest;newEdgeStyle={&quot;curved&quot;:0,&quot;rounded&quot;:0};" parent="v1EuqWUjBjIq2CPRRQix-7" vertex="1">
          <mxGeometry x="45" y="460" width="10" height="100" as="geometry" />
        </mxCell>
        <mxCell id="v1EuqWUjBjIq2CPRRQix-10" value="" style="endArrow=open;endFill=1;endSize=12;html=1;rounded=0;" parent="1" source="aM9ryv3xv72pqoxQDRHE-2" target="v1EuqWUjBjIq2CPRRQix-9" edge="1">
          <mxGeometry width="160" relative="1" as="geometry">
            <mxPoint x="190" y="260" as="sourcePoint" />
            <mxPoint x="350" y="260" as="targetPoint" />
          </mxGeometry>
        </mxCell>
        <mxCell id="v1EuqWUjBjIq2CPRRQix-14" value="insertWechselkurs" style="edgeLabel;resizable=0;html=1;align=center;verticalAlign=middle;" parent="1" connectable="0" vertex="1">
          <mxGeometry x="249.99897435897435" y="260" as="geometry">
            <mxPoint x="7" y="28" as="offset" />
          </mxGeometry>
        </mxCell>
        <mxCell id="v1EuqWUjBjIq2CPRRQix-15" value="Server" style="shape=umlFrame;whiteSpace=wrap;html=1;pointerEvents=0;" parent="1" vertex="1">
          <mxGeometry x="60" y="30" width="490" height="360" as="geometry" />
        </mxCell>
        <mxCell id="v1EuqWUjBjIq2CPRRQix-16" value=":Backend" style="shape=umlLifeline;perimeter=lifelinePerimeter;whiteSpace=wrap;html=1;container=1;dropTarget=0;collapsible=0;recursiveResize=0;outlineConnect=0;portConstraint=eastwest;newEdgeStyle={&quot;curved&quot;:0,&quot;rounded&quot;:0};" parent="1" vertex="1">
          <mxGeometry x="700" y="460" width="120" height="1410" as="geometry" />
        </mxCell>
        <mxCell id="v1EuqWUjBjIq2CPRRQix-20" value="" style="html=1;points=[[0,0,0,0,5],[0,1,0,0,-5],[1,0,0,0,5],[1,1,0,0,-5]];perimeter=orthogonalPerimeter;outlineConnect=0;targetShapes=umlLifeline;portConstraint=eastwest;newEdgeStyle={&quot;curved&quot;:0,&quot;rounded&quot;:0};" parent="v1EuqWUjBjIq2CPRRQix-16" vertex="1">
          <mxGeometry x="55" y="60" width="10" height="170" as="geometry" />
        </mxCell>
        <mxCell id="h3l3YlsOue6Y38c3jv6M-5" value="" style="html=1;points=[[0,0,0,0,5],[0,1,0,0,-5],[1,0,0,0,5],[1,1,0,0,-5]];perimeter=orthogonalPerimeter;outlineConnect=0;targetShapes=umlLifeline;portConstraint=eastwest;newEdgeStyle={&quot;curved&quot;:0,&quot;rounded&quot;:0};" parent="v1EuqWUjBjIq2CPRRQix-16" vertex="1">
          <mxGeometry x="55" y="350" width="10" height="130" as="geometry" />
        </mxCell>
        <mxCell id="v1EuqWUjBjIq2CPRRQix-18" value="getWechselkurs" style="html=1;verticalAlign=bottom;endArrow=block;curved=0;rounded=0;entryX=1;entryY=0;entryDx=0;entryDy=5;exitX=0;exitY=0;exitDx=0;exitDy=5;exitPerimeter=0;" parent="1" source="v1EuqWUjBjIq2CPRRQix-20" target="v1EuqWUjBjIq2CPRRQix-17" edge="1">
          <mxGeometry relative="1" as="geometry">
            <mxPoint x="525" y="525" as="sourcePoint" />
          </mxGeometry>
        </mxCell>
        <mxCell id="v1EuqWUjBjIq2CPRRQix-19" value="getWechselkurs: data" style="html=1;verticalAlign=bottom;endArrow=open;dashed=1;endSize=8;curved=0;rounded=0;exitX=1;exitY=0.644;exitDx=0;exitDy=0;exitPerimeter=0;" parent="1" target="v1EuqWUjBjIq2CPRRQix-20" edge="1">
          <mxGeometry relative="1" as="geometry">
            <mxPoint x="610" y="609.3299999999999" as="targetPoint" />
            <mxPoint x="455" y="609.3299999999999" as="sourcePoint" />
          </mxGeometry>
        </mxCell>
        <mxCell id="v1EuqWUjBjIq2CPRRQix-21" value="alt" style="shape=umlFrame;whiteSpace=wrap;html=1;pointerEvents=0;" parent="1" vertex="1">
          <mxGeometry x="240" y="580" width="690" height="180" as="geometry" />
        </mxCell>
        <mxCell id="v1EuqWUjBjIq2CPRRQix-23" value="[Internetconnection true]" style="text;html=1;strokeColor=none;fillColor=none;align=center;verticalAlign=middle;whiteSpace=wrap;rounded=0;" parent="1" vertex="1">
          <mxGeometry x="290" y="610" width="150" height="30" as="geometry" />
        </mxCell>
        <mxCell id="v1EuqWUjBjIq2CPRRQix-30" value="[else]" style="text;html=1;strokeColor=none;fillColor=none;align=center;verticalAlign=middle;whiteSpace=wrap;rounded=0;" parent="1" vertex="1">
          <mxGeometry x="290" y="710" width="150" height="30" as="geometry" />
        </mxCell>
        <mxCell id="v1EuqWUjBjIq2CPRRQix-35" value="" style="endArrow=none;dashed=1;html=1;rounded=0;exitX=-0.001;exitY=0.654;exitDx=0;exitDy=0;exitPerimeter=0;entryX=1;entryY=0.65;entryDx=0;entryDy=0;entryPerimeter=0;" parent="1" source="v1EuqWUjBjIq2CPRRQix-21" target="v1EuqWUjBjIq2CPRRQix-21" edge="1">
          <mxGeometry width="50" height="50" relative="1" as="geometry">
            <mxPoint x="620" y="650" as="sourcePoint" />
            <mxPoint x="870" y="700" as="targetPoint" />
          </mxGeometry>
        </mxCell>
        <mxCell id="v1EuqWUjBjIq2CPRRQix-36" value="" style="shape=umlLifeline;perimeter=lifelinePerimeter;whiteSpace=wrap;html=1;container=1;dropTarget=0;collapsible=0;recursiveResize=0;outlineConnect=0;portConstraint=eastwest;newEdgeStyle={&quot;curved&quot;:0,&quot;rounded&quot;:0};participant=umlActor;" parent="1" vertex="1">
          <mxGeometry x="1090" y="450" width="20" height="1420" as="geometry" />
        </mxCell>
        <mxCell id="h3l3YlsOue6Y38c3jv6M-8" value="" style="html=1;points=[[0,0,0,0,5],[0,1,0,0,-5],[1,0,0,0,5],[1,1,0,0,-5]];perimeter=orthogonalPerimeter;outlineConnect=0;targetShapes=umlLifeline;portConstraint=eastwest;newEdgeStyle={&quot;curved&quot;:0,&quot;rounded&quot;:0};" parent="v1EuqWUjBjIq2CPRRQix-36" vertex="1">
          <mxGeometry x="5" y="360" width="10" height="30" as="geometry" />
        </mxCell>
        <mxCell id="JgO0-1MTpIiJ-sRc2Kr0-39" value="" style="html=1;points=[[0,0,0,0,5],[0,1,0,0,-5],[1,0,0,0,5],[1,1,0,0,-5]];perimeter=orthogonalPerimeter;outlineConnect=0;targetShapes=umlLifeline;portConstraint=eastwest;newEdgeStyle={&quot;curved&quot;:0,&quot;rounded&quot;:0};" vertex="1" parent="v1EuqWUjBjIq2CPRRQix-36">
          <mxGeometry x="5" y="1120" width="10" height="20" as="geometry" />
        </mxCell>
        <mxCell id="JgO0-1MTpIiJ-sRc2Kr0-43" value="" style="html=1;points=[[0,0,0,0,5],[0,1,0,0,-5],[1,0,0,0,5],[1,1,0,0,-5]];perimeter=orthogonalPerimeter;outlineConnect=0;targetShapes=umlLifeline;portConstraint=eastwest;newEdgeStyle={&quot;curved&quot;:0,&quot;rounded&quot;:0};" vertex="1" parent="v1EuqWUjBjIq2CPRRQix-36">
          <mxGeometry x="-175" y="1160" width="10" height="40" as="geometry" />
        </mxCell>
        <mxCell id="v1EuqWUjBjIq2CPRRQix-37" value=":User" style="text;html=1;strokeColor=none;fillColor=none;align=center;verticalAlign=middle;whiteSpace=wrap;rounded=0;" parent="1" vertex="1">
          <mxGeometry x="1100" y="490" width="60" height="30" as="geometry" />
        </mxCell>
        <mxCell id="h3l3YlsOue6Y38c3jv6M-1" value="" style="html=1;points=[[0,0,0,0,5],[0,1,0,0,-5],[1,0,0,0,5],[1,1,0,0,-5]];perimeter=orthogonalPerimeter;outlineConnect=0;targetShapes=umlLifeline;portConstraint=eastwest;newEdgeStyle={&quot;curved&quot;:0,&quot;rounded&quot;:0};" parent="1" vertex="1">
          <mxGeometry x="170" y="240" width="10" height="40" as="geometry" />
        </mxCell>
        <mxCell id="h3l3YlsOue6Y38c3jv6M-2" value="sortData" style="html=1;align=left;spacingLeft=2;endArrow=block;rounded=0;edgeStyle=orthogonalEdgeStyle;curved=0;rounded=0;" parent="1" target="h3l3YlsOue6Y38c3jv6M-1" edge="1">
          <mxGeometry relative="1" as="geometry">
            <mxPoint x="175" y="220" as="sourcePoint" />
            <Array as="points">
              <mxPoint x="205" y="250" />
            </Array>
          </mxGeometry>
        </mxCell>
        <mxCell id="h3l3YlsOue6Y38c3jv6M-3" value="" style="html=1;points=[[0,0,0,0,5],[0,1,0,0,-5],[1,0,0,0,5],[1,1,0,0,-5]];perimeter=orthogonalPerimeter;outlineConnect=0;targetShapes=umlLifeline;portConstraint=eastwest;newEdgeStyle={&quot;curved&quot;:0,&quot;rounded&quot;:0};" parent="1" vertex="1">
          <mxGeometry x="760" y="640" width="10" height="40" as="geometry" />
        </mxCell>
        <mxCell id="h3l3YlsOue6Y38c3jv6M-4" value="saveData" style="html=1;align=left;spacingLeft=2;endArrow=block;rounded=0;edgeStyle=orthogonalEdgeStyle;curved=0;rounded=0;" parent="1" source="v1EuqWUjBjIq2CPRRQix-20" target="h3l3YlsOue6Y38c3jv6M-3" edge="1">
          <mxGeometry relative="1" as="geometry">
            <mxPoint x="775" y="620" as="sourcePoint" />
            <Array as="points">
              <mxPoint x="805" y="630" />
              <mxPoint x="805" y="660" />
            </Array>
          </mxGeometry>
        </mxCell>
        <mxCell id="h3l3YlsOue6Y38c3jv6M-17" value="alt" style="shape=umlFrame;whiteSpace=wrap;html=1;pointerEvents=0;" parent="1" vertex="1">
          <mxGeometry x="550" y="790" width="590" height="1010" as="geometry" />
        </mxCell>
        <mxCell id="h3l3YlsOue6Y38c3jv6M-20" value="[swapSpinnerValues]" style="text;html=1;strokeColor=none;fillColor=none;align=center;verticalAlign=middle;whiteSpace=wrap;rounded=0;" parent="1" vertex="1">
          <mxGeometry x="600" y="830" width="60" height="30" as="geometry" />
        </mxCell>
        <mxCell id="QMycJKl9IB8t47OR3IQw-2" value=":Frontend" style="shape=umlLifeline;perimeter=lifelinePerimeter;whiteSpace=wrap;html=1;container=1;dropTarget=0;collapsible=0;recursiveResize=0;outlineConnect=0;portConstraint=eastwest;newEdgeStyle={&quot;curved&quot;:0,&quot;rounded&quot;:0};" parent="1" vertex="1">
          <mxGeometry x="860" y="460" width="110" height="1410" as="geometry" />
        </mxCell>
        <mxCell id="QMycJKl9IB8t47OR3IQw-4" value="" style="html=1;points=[[0,0,0,0,5],[0,1,0,0,-5],[1,0,0,0,5],[1,1,0,0,-5]];perimeter=orthogonalPerimeter;outlineConnect=0;targetShapes=umlLifeline;portConstraint=eastwest;newEdgeStyle={&quot;curved&quot;:0,&quot;rounded&quot;:0};" parent="QMycJKl9IB8t47OR3IQw-2" vertex="1">
          <mxGeometry x="50" y="370" width="10" height="110" as="geometry" />
        </mxCell>
        <mxCell id="QMycJKl9IB8t47OR3IQw-31" value="" style="html=1;points=[[0,0,0,0,5],[0,1,0,0,-5],[1,0,0,0,5],[1,1,0,0,-5]];perimeter=orthogonalPerimeter;outlineConnect=0;targetShapes=umlLifeline;portConstraint=eastwest;newEdgeStyle={&quot;curved&quot;:0,&quot;rounded&quot;:0};" parent="QMycJKl9IB8t47OR3IQw-2" vertex="1">
          <mxGeometry x="-105" y="530" width="10" height="130" as="geometry" />
        </mxCell>
        <mxCell id="QMycJKl9IB8t47OR3IQw-32" value="" style="html=1;points=[[0,0,0,0,5],[0,1,0,0,-5],[1,0,0,0,5],[1,1,0,0,-5]];perimeter=orthogonalPerimeter;outlineConnect=0;targetShapes=umlLifeline;portConstraint=eastwest;newEdgeStyle={&quot;curved&quot;:0,&quot;rounded&quot;:0};" parent="QMycJKl9IB8t47OR3IQw-2" vertex="1">
          <mxGeometry x="235" y="530" width="10" height="20" as="geometry" />
        </mxCell>
        <mxCell id="QMycJKl9IB8t47OR3IQw-33" value="" style="html=1;points=[[0,0,0,0,5],[0,1,0,0,-5],[1,0,0,0,5],[1,1,0,0,-5]];perimeter=orthogonalPerimeter;outlineConnect=0;targetShapes=umlLifeline;portConstraint=eastwest;newEdgeStyle={&quot;curved&quot;:0,&quot;rounded&quot;:0};" parent="QMycJKl9IB8t47OR3IQw-2" vertex="1">
          <mxGeometry x="50" y="550" width="10" height="110" as="geometry" />
        </mxCell>
        <mxCell id="QMycJKl9IB8t47OR3IQw-34" value="getSpinnerValues" style="html=1;verticalAlign=bottom;endArrow=block;curved=0;rounded=0;entryX=0;entryY=0;entryDx=0;entryDy=5;entryPerimeter=0;" parent="QMycJKl9IB8t47OR3IQw-2" source="QMycJKl9IB8t47OR3IQw-31" target="QMycJKl9IB8t47OR3IQw-33" edge="1">
          <mxGeometry width="80" relative="1" as="geometry">
            <mxPoint x="-20" y="630" as="sourcePoint" />
            <mxPoint x="60" y="630" as="targetPoint" />
          </mxGeometry>
        </mxCell>
        <mxCell id="QMycJKl9IB8t47OR3IQw-35" value="getSpinnerValues: values" style="html=1;verticalAlign=bottom;endArrow=open;dashed=1;endSize=8;curved=0;rounded=0;" parent="QMycJKl9IB8t47OR3IQw-2" target="QMycJKl9IB8t47OR3IQw-31" edge="1">
          <mxGeometry relative="1" as="geometry">
            <mxPoint x="-90" y="575" as="targetPoint" />
            <mxPoint x="45" y="574.76" as="sourcePoint" />
          </mxGeometry>
        </mxCell>
        <mxCell id="QMycJKl9IB8t47OR3IQw-36" value="" style="html=1;points=[[0,0,0,0,5],[0,1,0,0,-5],[1,0,0,0,5],[1,1,0,0,-5]];perimeter=orthogonalPerimeter;outlineConnect=0;targetShapes=umlLifeline;portConstraint=eastwest;newEdgeStyle={&quot;curved&quot;:0,&quot;rounded&quot;:0};" parent="QMycJKl9IB8t47OR3IQw-2" vertex="1">
          <mxGeometry x="-100" y="600" width="10" height="40" as="geometry" />
        </mxCell>
        <mxCell id="QMycJKl9IB8t47OR3IQw-37" value="getExchangeRate" style="html=1;align=left;spacingLeft=2;endArrow=block;rounded=0;edgeStyle=orthogonalEdgeStyle;curved=0;rounded=0;" parent="QMycJKl9IB8t47OR3IQw-2" target="QMycJKl9IB8t47OR3IQw-36" edge="1">
          <mxGeometry relative="1" as="geometry">
            <mxPoint x="-95" y="560" as="sourcePoint" />
            <Array as="points">
              <mxPoint x="-65" y="590" />
            </Array>
          </mxGeometry>
        </mxCell>
        <mxCell id="QMycJKl9IB8t47OR3IQw-38" value="" style="endArrow=open;endFill=1;endSize=12;html=1;rounded=0;exitX=0.5;exitY=1;exitDx=0;exitDy=0;exitPerimeter=0;" parent="QMycJKl9IB8t47OR3IQw-2" source="QMycJKl9IB8t47OR3IQw-31" target="QMycJKl9IB8t47OR3IQw-33" edge="1">
          <mxGeometry width="160" relative="1" as="geometry">
            <mxPoint x="-99.99999999999955" y="670" as="sourcePoint" />
            <mxPoint x="40" y="670" as="targetPoint" />
          </mxGeometry>
        </mxCell>
        <mxCell id="QMycJKl9IB8t47OR3IQw-39" value="showExchangeRate" style="edgeLabel;html=1;align=center;verticalAlign=middle;resizable=0;points=[];" parent="QMycJKl9IB8t47OR3IQw-38" vertex="1" connectable="0">
          <mxGeometry x="-0.7414" y="-1" relative="1" as="geometry">
            <mxPoint x="47" y="-11" as="offset" />
          </mxGeometry>
        </mxCell>
        <mxCell id="QMycJKl9IB8t47OR3IQw-40" value="" style="endArrow=open;endFill=1;endSize=12;html=1;rounded=0;exitX=0;exitY=0;exitDx=0;exitDy=5;exitPerimeter=0;entryX=1;entryY=0;entryDx=0;entryDy=5;entryPerimeter=0;" parent="QMycJKl9IB8t47OR3IQw-2" source="QMycJKl9IB8t47OR3IQw-32" target="QMycJKl9IB8t47OR3IQw-31" edge="1">
          <mxGeometry width="160" relative="1" as="geometry">
            <mxPoint x="-90" y="670" as="sourcePoint" />
            <mxPoint x="55" y="670" as="targetPoint" />
          </mxGeometry>
        </mxCell>
        <mxCell id="QMycJKl9IB8t47OR3IQw-41" value="selectCurrency" style="edgeLabel;html=1;align=center;verticalAlign=middle;resizable=0;points=[];" parent="QMycJKl9IB8t47OR3IQw-40" vertex="1" connectable="0">
          <mxGeometry x="-0.7414" y="-1" relative="1" as="geometry">
            <mxPoint x="-212" y="-11" as="offset" />
          </mxGeometry>
        </mxCell>
        <mxCell id="QMycJKl9IB8t47OR3IQw-42" value="" style="html=1;points=[[0,0,0,0,5],[0,1,0,0,-5],[1,0,0,0,5],[1,1,0,0,-5]];perimeter=orthogonalPerimeter;outlineConnect=0;targetShapes=umlLifeline;portConstraint=eastwest;newEdgeStyle={&quot;curved&quot;:0,&quot;rounded&quot;:0};" parent="QMycJKl9IB8t47OR3IQw-2" vertex="1">
          <mxGeometry x="-105" y="710" width="10" height="220" as="geometry" />
        </mxCell>
        <mxCell id="QMycJKl9IB8t47OR3IQw-43" value="" style="html=1;points=[[0,0,0,0,5],[0,1,0,0,-5],[1,0,0,0,5],[1,1,0,0,-5]];perimeter=orthogonalPerimeter;outlineConnect=0;targetShapes=umlLifeline;portConstraint=eastwest;newEdgeStyle={&quot;curved&quot;:0,&quot;rounded&quot;:0};" parent="QMycJKl9IB8t47OR3IQw-2" vertex="1">
          <mxGeometry x="235" y="710" width="10" height="30" as="geometry" />
        </mxCell>
        <mxCell id="QMycJKl9IB8t47OR3IQw-44" value="" style="html=1;points=[[0,0,0,0,5],[0,1,0,0,-5],[1,0,0,0,5],[1,1,0,0,-5]];perimeter=orthogonalPerimeter;outlineConnect=0;targetShapes=umlLifeline;portConstraint=eastwest;newEdgeStyle={&quot;curved&quot;:0,&quot;rounded&quot;:0};" parent="QMycJKl9IB8t47OR3IQw-2" vertex="1">
          <mxGeometry x="50" y="730" width="10" height="200" as="geometry" />
        </mxCell>
        <mxCell id="QMycJKl9IB8t47OR3IQw-45" value="getSpinnerValues" style="html=1;verticalAlign=bottom;endArrow=block;curved=0;rounded=0;entryX=0;entryY=0;entryDx=0;entryDy=5;entryPerimeter=0;" parent="QMycJKl9IB8t47OR3IQw-2" source="QMycJKl9IB8t47OR3IQw-42" target="QMycJKl9IB8t47OR3IQw-44" edge="1">
          <mxGeometry width="80" relative="1" as="geometry">
            <mxPoint x="-20" y="810" as="sourcePoint" />
            <mxPoint x="60" y="810" as="targetPoint" />
          </mxGeometry>
        </mxCell>
        <mxCell id="QMycJKl9IB8t47OR3IQw-46" value="getSpinnerValues: values" style="html=1;verticalAlign=bottom;endArrow=open;dashed=1;endSize=8;curved=0;rounded=0;" parent="QMycJKl9IB8t47OR3IQw-2" target="QMycJKl9IB8t47OR3IQw-42" edge="1">
          <mxGeometry relative="1" as="geometry">
            <mxPoint x="-90" y="755" as="targetPoint" />
            <mxPoint x="45" y="754.76" as="sourcePoint" />
          </mxGeometry>
        </mxCell>
        <mxCell id="QMycJKl9IB8t47OR3IQw-47" value="" style="html=1;points=[[0,0,0,0,5],[0,1,0,0,-5],[1,0,0,0,5],[1,1,0,0,-5]];perimeter=orthogonalPerimeter;outlineConnect=0;targetShapes=umlLifeline;portConstraint=eastwest;newEdgeStyle={&quot;curved&quot;:0,&quot;rounded&quot;:0};" parent="QMycJKl9IB8t47OR3IQw-2" vertex="1">
          <mxGeometry x="-100" y="780" width="10" height="40" as="geometry" />
        </mxCell>
        <mxCell id="QMycJKl9IB8t47OR3IQw-48" value="calculateValue" style="html=1;align=left;spacingLeft=2;endArrow=block;rounded=0;edgeStyle=orthogonalEdgeStyle;curved=0;rounded=0;" parent="QMycJKl9IB8t47OR3IQw-2" target="QMycJKl9IB8t47OR3IQw-47" edge="1">
          <mxGeometry relative="1" as="geometry">
            <mxPoint x="-95" y="740" as="sourcePoint" />
            <Array as="points">
              <mxPoint x="-65" y="770" />
            </Array>
          </mxGeometry>
        </mxCell>
        <mxCell id="QMycJKl9IB8t47OR3IQw-49" value="" style="endArrow=open;endFill=1;endSize=12;html=1;rounded=0;exitX=0.5;exitY=1;exitDx=0;exitDy=0;exitPerimeter=0;" parent="QMycJKl9IB8t47OR3IQw-2" source="QMycJKl9IB8t47OR3IQw-42" target="QMycJKl9IB8t47OR3IQw-44" edge="1">
          <mxGeometry width="160" relative="1" as="geometry">
            <mxPoint x="-99.99999999999955" y="850" as="sourcePoint" />
            <mxPoint x="40" y="850" as="targetPoint" />
          </mxGeometry>
        </mxCell>
        <mxCell id="QMycJKl9IB8t47OR3IQw-50" value="showValues" style="edgeLabel;html=1;align=center;verticalAlign=middle;resizable=0;points=[];" parent="QMycJKl9IB8t47OR3IQw-49" vertex="1" connectable="0">
          <mxGeometry x="-0.7414" y="-1" relative="1" as="geometry">
            <mxPoint x="48" y="-11" as="offset" />
          </mxGeometry>
        </mxCell>
        <mxCell id="QMycJKl9IB8t47OR3IQw-51" value="" style="endArrow=open;endFill=1;endSize=12;html=1;rounded=0;exitX=0;exitY=0;exitDx=0;exitDy=5;exitPerimeter=0;entryX=1;entryY=0;entryDx=0;entryDy=5;entryPerimeter=0;" parent="QMycJKl9IB8t47OR3IQw-2" source="QMycJKl9IB8t47OR3IQw-43" target="QMycJKl9IB8t47OR3IQw-42" edge="1">
          <mxGeometry width="160" relative="1" as="geometry">
            <mxPoint x="-90" y="850" as="sourcePoint" />
            <mxPoint x="55" y="850" as="targetPoint" />
          </mxGeometry>
        </mxCell>
        <mxCell id="QMycJKl9IB8t47OR3IQw-52" value="klickCalculateValue" style="edgeLabel;html=1;align=center;verticalAlign=middle;resizable=0;points=[];" parent="QMycJKl9IB8t47OR3IQw-51" vertex="1" connectable="0">
          <mxGeometry x="-0.7414" y="-1" relative="1" as="geometry">
            <mxPoint x="-212" y="-11" as="offset" />
          </mxGeometry>
        </mxCell>
        <mxCell id="JgO0-1MTpIiJ-sRc2Kr0-13" value="" style="html=1;points=[[0,0,0,0,5],[0,1,0,0,-5],[1,0,0,0,5],[1,1,0,0,-5]];perimeter=orthogonalPerimeter;outlineConnect=0;targetShapes=umlLifeline;portConstraint=eastwest;newEdgeStyle={&quot;curved&quot;:0,&quot;rounded&quot;:0};" vertex="1" parent="QMycJKl9IB8t47OR3IQw-2">
          <mxGeometry x="-100" y="860" width="10" height="40" as="geometry" />
        </mxCell>
        <mxCell id="JgO0-1MTpIiJ-sRc2Kr0-14" value="calculateDoenerCount" style="html=1;align=left;spacingLeft=2;endArrow=block;rounded=0;edgeStyle=orthogonalEdgeStyle;curved=0;rounded=0;" edge="1" target="JgO0-1MTpIiJ-sRc2Kr0-13" parent="QMycJKl9IB8t47OR3IQw-2">
          <mxGeometry x="-0.6471" y="10" relative="1" as="geometry">
            <mxPoint x="-95" y="840" as="sourcePoint" />
            <Array as="points">
              <mxPoint x="-65" y="870" />
            </Array>
            <mxPoint as="offset" />
          </mxGeometry>
        </mxCell>
        <mxCell id="JgO0-1MTpIiJ-sRc2Kr0-16" value="" style="html=1;points=[[0,0,0,0,5],[0,1,0,0,-5],[1,0,0,0,5],[1,1,0,0,-5]];perimeter=orthogonalPerimeter;outlineConnect=0;targetShapes=umlLifeline;portConstraint=eastwest;newEdgeStyle={&quot;curved&quot;:0,&quot;rounded&quot;:0};" vertex="1" parent="QMycJKl9IB8t47OR3IQw-2">
          <mxGeometry x="235" y="990" width="10" height="20" as="geometry" />
        </mxCell>
        <mxCell id="JgO0-1MTpIiJ-sRc2Kr0-17" value="" style="html=1;points=[[0,0,0,0,5],[0,1,0,0,-5],[1,0,0,0,5],[1,1,0,0,-5]];perimeter=orthogonalPerimeter;outlineConnect=0;targetShapes=umlLifeline;portConstraint=eastwest;newEdgeStyle={&quot;curved&quot;:0,&quot;rounded&quot;:0};" vertex="1" parent="QMycJKl9IB8t47OR3IQw-2">
          <mxGeometry x="50" y="990" width="10" height="90" as="geometry" />
        </mxCell>
        <mxCell id="JgO0-1MTpIiJ-sRc2Kr0-24" value="" style="endArrow=open;endFill=1;endSize=12;html=1;rounded=0;exitX=0;exitY=0;exitDx=0;exitDy=5;exitPerimeter=0;entryX=1;entryY=0;entryDx=0;entryDy=5;entryPerimeter=0;" edge="1" parent="QMycJKl9IB8t47OR3IQw-2" source="JgO0-1MTpIiJ-sRc2Kr0-16" target="JgO0-1MTpIiJ-sRc2Kr0-17">
          <mxGeometry width="160" relative="1" as="geometry">
            <mxPoint x="-90" y="1130" as="sourcePoint" />
            <mxPoint x="55" y="1130" as="targetPoint" />
          </mxGeometry>
        </mxCell>
        <mxCell id="JgO0-1MTpIiJ-sRc2Kr0-25" value="selectFaqs" style="edgeLabel;html=1;align=center;verticalAlign=middle;resizable=0;points=[];" vertex="1" connectable="0" parent="JgO0-1MTpIiJ-sRc2Kr0-24">
          <mxGeometry x="-0.7414" y="-1" relative="1" as="geometry">
            <mxPoint x="-52" y="-11" as="offset" />
          </mxGeometry>
        </mxCell>
        <mxCell id="JgO0-1MTpIiJ-sRc2Kr0-26" value="" style="html=1;points=[[0,0,0,0,5],[0,1,0,0,-5],[1,0,0,0,5],[1,1,0,0,-5]];perimeter=orthogonalPerimeter;outlineConnect=0;targetShapes=umlLifeline;portConstraint=eastwest;newEdgeStyle={&quot;curved&quot;:0,&quot;rounded&quot;:0};" vertex="1" parent="QMycJKl9IB8t47OR3IQw-2">
          <mxGeometry x="55" y="1030" width="10" height="40" as="geometry" />
        </mxCell>
        <mxCell id="JgO0-1MTpIiJ-sRc2Kr0-27" value="changeToFaqFrame" style="html=1;align=left;spacingLeft=2;endArrow=block;rounded=0;edgeStyle=orthogonalEdgeStyle;curved=0;rounded=0;" edge="1" target="JgO0-1MTpIiJ-sRc2Kr0-26" parent="QMycJKl9IB8t47OR3IQw-2" source="JgO0-1MTpIiJ-sRc2Kr0-17">
          <mxGeometry relative="1" as="geometry">
            <mxPoint x="60" y="1010" as="sourcePoint" />
            <Array as="points">
              <mxPoint x="90" y="1020" />
              <mxPoint x="90" y="1050" />
            </Array>
          </mxGeometry>
        </mxCell>
        <mxCell id="JgO0-1MTpIiJ-sRc2Kr0-45" value="" style="html=1;points=[[0,0,0,0,5],[0,1,0,0,-5],[1,0,0,0,5],[1,1,0,0,-5]];perimeter=orthogonalPerimeter;outlineConnect=0;targetShapes=umlLifeline;portConstraint=eastwest;newEdgeStyle={&quot;curved&quot;:0,&quot;rounded&quot;:0};" vertex="1" parent="QMycJKl9IB8t47OR3IQw-2">
          <mxGeometry x="235" y="1230" width="10" height="20" as="geometry" />
        </mxCell>
        <mxCell id="JgO0-1MTpIiJ-sRc2Kr0-46" value="" style="html=1;points=[[0,0,0,0,5],[0,1,0,0,-5],[1,0,0,0,5],[1,1,0,0,-5]];perimeter=orthogonalPerimeter;outlineConnect=0;targetShapes=umlLifeline;portConstraint=eastwest;newEdgeStyle={&quot;curved&quot;:0,&quot;rounded&quot;:0};" vertex="1" parent="QMycJKl9IB8t47OR3IQw-2">
          <mxGeometry x="50" y="1230" width="10" height="90" as="geometry" />
        </mxCell>
        <mxCell id="JgO0-1MTpIiJ-sRc2Kr0-47" value="" style="endArrow=open;endFill=1;endSize=12;html=1;rounded=0;exitX=0;exitY=0;exitDx=0;exitDy=5;exitPerimeter=0;entryX=1;entryY=0;entryDx=0;entryDy=5;entryPerimeter=0;" edge="1" parent="QMycJKl9IB8t47OR3IQw-2" source="JgO0-1MTpIiJ-sRc2Kr0-45" target="JgO0-1MTpIiJ-sRc2Kr0-46">
          <mxGeometry width="160" relative="1" as="geometry">
            <mxPoint x="-90" y="1370" as="sourcePoint" />
            <mxPoint x="55" y="1370" as="targetPoint" />
          </mxGeometry>
        </mxCell>
        <mxCell id="JgO0-1MTpIiJ-sRc2Kr0-48" value="selectHome" style="edgeLabel;html=1;align=center;verticalAlign=middle;resizable=0;points=[];" vertex="1" connectable="0" parent="JgO0-1MTpIiJ-sRc2Kr0-47">
          <mxGeometry x="-0.7414" y="-1" relative="1" as="geometry">
            <mxPoint x="-52" y="-11" as="offset" />
          </mxGeometry>
        </mxCell>
        <mxCell id="JgO0-1MTpIiJ-sRc2Kr0-49" value="" style="html=1;points=[[0,0,0,0,5],[0,1,0,0,-5],[1,0,0,0,5],[1,1,0,0,-5]];perimeter=orthogonalPerimeter;outlineConnect=0;targetShapes=umlLifeline;portConstraint=eastwest;newEdgeStyle={&quot;curved&quot;:0,&quot;rounded&quot;:0};" vertex="1" parent="QMycJKl9IB8t47OR3IQw-2">
          <mxGeometry x="55" y="1270" width="10" height="40" as="geometry" />
        </mxCell>
        <mxCell id="JgO0-1MTpIiJ-sRc2Kr0-50" value="changeToHomeFrame" style="html=1;align=left;spacingLeft=2;endArrow=block;rounded=0;edgeStyle=orthogonalEdgeStyle;curved=0;rounded=0;" edge="1" parent="QMycJKl9IB8t47OR3IQw-2" source="JgO0-1MTpIiJ-sRc2Kr0-46" target="JgO0-1MTpIiJ-sRc2Kr0-49">
          <mxGeometry relative="1" as="geometry">
            <mxPoint x="60" y="1250" as="sourcePoint" />
            <Array as="points">
              <mxPoint x="90" y="1260" />
              <mxPoint x="90" y="1290" />
            </Array>
          </mxGeometry>
        </mxCell>
        <mxCell id="JgO0-1MTpIiJ-sRc2Kr0-40" value="" style="html=1;points=[[0,0,0,0,5],[0,1,0,0,-5],[1,0,0,0,5],[1,1,0,0,-5]];perimeter=orthogonalPerimeter;outlineConnect=0;targetShapes=umlLifeline;portConstraint=eastwest;newEdgeStyle={&quot;curved&quot;:0,&quot;rounded&quot;:0};" vertex="1" parent="QMycJKl9IB8t47OR3IQw-2">
          <mxGeometry x="50" y="1110" width="10" height="90" as="geometry" />
        </mxCell>
        <mxCell id="QMycJKl9IB8t47OR3IQw-3" value="Applikation" style="html=1;whiteSpace=wrap;" parent="1" vertex="1">
          <mxGeometry x="700" y="410" width="270" height="50" as="geometry" />
        </mxCell>
        <mxCell id="QMycJKl9IB8t47OR3IQw-9" value="getSpinnerValues" style="html=1;verticalAlign=bottom;endArrow=block;curved=0;rounded=0;entryX=0;entryY=0;entryDx=0;entryDy=5;entryPerimeter=0;" parent="1" source="h3l3YlsOue6Y38c3jv6M-5" target="QMycJKl9IB8t47OR3IQw-4" edge="1">
          <mxGeometry width="80" relative="1" as="geometry">
            <mxPoint x="840" y="910" as="sourcePoint" />
            <mxPoint x="920" y="910" as="targetPoint" />
          </mxGeometry>
        </mxCell>
        <mxCell id="QMycJKl9IB8t47OR3IQw-10" value="getSpinnerValues: values" style="html=1;verticalAlign=bottom;endArrow=open;dashed=1;endSize=8;curved=0;rounded=0;" parent="1" target="h3l3YlsOue6Y38c3jv6M-5" edge="1">
          <mxGeometry relative="1" as="geometry">
            <mxPoint x="770" y="855" as="targetPoint" />
            <mxPoint x="905" y="854.76" as="sourcePoint" />
          </mxGeometry>
        </mxCell>
        <mxCell id="QMycJKl9IB8t47OR3IQw-13" value="" style="html=1;points=[[0,0,0,0,5],[0,1,0,0,-5],[1,0,0,0,5],[1,1,0,0,-5]];perimeter=orthogonalPerimeter;outlineConnect=0;targetShapes=umlLifeline;portConstraint=eastwest;newEdgeStyle={&quot;curved&quot;:0,&quot;rounded&quot;:0};" parent="1" vertex="1">
          <mxGeometry x="760" y="880" width="10" height="40" as="geometry" />
        </mxCell>
        <mxCell id="QMycJKl9IB8t47OR3IQw-14" value="swapSpinnerValues" style="html=1;align=left;spacingLeft=2;endArrow=block;rounded=0;edgeStyle=orthogonalEdgeStyle;curved=0;rounded=0;" parent="1" target="QMycJKl9IB8t47OR3IQw-13" edge="1">
          <mxGeometry relative="1" as="geometry">
            <mxPoint x="765" y="840" as="sourcePoint" />
            <Array as="points">
              <mxPoint x="795" y="870" />
            </Array>
          </mxGeometry>
        </mxCell>
        <mxCell id="QMycJKl9IB8t47OR3IQw-15" value="" style="endArrow=open;endFill=1;endSize=12;html=1;rounded=0;exitX=0.5;exitY=1;exitDx=0;exitDy=0;exitPerimeter=0;" parent="1" source="h3l3YlsOue6Y38c3jv6M-5" target="QMycJKl9IB8t47OR3IQw-4" edge="1">
          <mxGeometry width="160" relative="1" as="geometry">
            <mxPoint x="760.0000000000005" y="950" as="sourcePoint" />
            <mxPoint x="900" y="950" as="targetPoint" />
          </mxGeometry>
        </mxCell>
        <mxCell id="QMycJKl9IB8t47OR3IQw-16" value="showSpinnerValues" style="edgeLabel;html=1;align=center;verticalAlign=middle;resizable=0;points=[];" parent="QMycJKl9IB8t47OR3IQw-15" vertex="1" connectable="0">
          <mxGeometry x="-0.7414" y="-1" relative="1" as="geometry">
            <mxPoint x="47" y="-11" as="offset" />
          </mxGeometry>
        </mxCell>
        <mxCell id="QMycJKl9IB8t47OR3IQw-18" value="" style="endArrow=open;endFill=1;endSize=12;html=1;rounded=0;exitX=0;exitY=0;exitDx=0;exitDy=5;exitPerimeter=0;entryX=1;entryY=0;entryDx=0;entryDy=5;entryPerimeter=0;" parent="1" source="h3l3YlsOue6Y38c3jv6M-8" target="h3l3YlsOue6Y38c3jv6M-5" edge="1">
          <mxGeometry width="160" relative="1" as="geometry">
            <mxPoint x="770" y="950" as="sourcePoint" />
            <mxPoint x="915" y="950" as="targetPoint" />
          </mxGeometry>
        </mxCell>
        <mxCell id="QMycJKl9IB8t47OR3IQw-19" value="klickSwapSpinnerValues" style="edgeLabel;html=1;align=center;verticalAlign=middle;resizable=0;points=[];" parent="QMycJKl9IB8t47OR3IQw-18" vertex="1" connectable="0">
          <mxGeometry x="-0.7414" y="-1" relative="1" as="geometry">
            <mxPoint x="-212" y="-11" as="offset" />
          </mxGeometry>
        </mxCell>
        <mxCell id="JgO0-1MTpIiJ-sRc2Kr0-1" value="[selectCurrency]" style="text;html=1;align=center;verticalAlign=middle;resizable=0;points=[];autosize=1;strokeColor=none;fillColor=none;" vertex="1" parent="1">
          <mxGeometry x="565" y="1038" width="110" height="30" as="geometry" />
        </mxCell>
        <mxCell id="JgO0-1MTpIiJ-sRc2Kr0-41" value="" style="endArrow=open;endFill=1;endSize=12;html=1;rounded=0;exitX=0;exitY=0;exitDx=0;exitDy=5;exitPerimeter=0;entryX=1;entryY=0;entryDx=0;entryDy=5;entryPerimeter=0;" edge="1" parent="1" source="JgO0-1MTpIiJ-sRc2Kr0-39" target="JgO0-1MTpIiJ-sRc2Kr0-40">
          <mxGeometry width="160" relative="1" as="geometry">
            <mxPoint x="770" y="1710" as="sourcePoint" />
            <mxPoint x="915" y="1710" as="targetPoint" />
          </mxGeometry>
        </mxCell>
        <mxCell id="JgO0-1MTpIiJ-sRc2Kr0-42" value="selectDarkMode" style="edgeLabel;html=1;align=center;verticalAlign=middle;resizable=0;points=[];" vertex="1" connectable="0" parent="JgO0-1MTpIiJ-sRc2Kr0-41">
          <mxGeometry x="-0.7414" y="-1" relative="1" as="geometry">
            <mxPoint x="-52" y="-11" as="offset" />
          </mxGeometry>
        </mxCell>
        <mxCell id="JgO0-1MTpIiJ-sRc2Kr0-44" value="changeToDarkMode" style="html=1;align=left;spacingLeft=2;endArrow=block;rounded=0;edgeStyle=orthogonalEdgeStyle;curved=0;rounded=0;" edge="1" parent="1" source="JgO0-1MTpIiJ-sRc2Kr0-40" target="JgO0-1MTpIiJ-sRc2Kr0-43">
          <mxGeometry relative="1" as="geometry">
            <mxPoint x="920" y="1590" as="sourcePoint" />
            <Array as="points">
              <mxPoint x="950" y="1600" />
              <mxPoint x="950" y="1630" />
            </Array>
          </mxGeometry>
        </mxCell>
        <mxCell id="JgO0-1MTpIiJ-sRc2Kr0-52" value="" style="endArrow=none;dashed=1;html=1;rounded=0;exitX=0.001;exitY=0.169;exitDx=0;exitDy=0;exitPerimeter=0;entryX=1.002;entryY=0.168;entryDx=0;entryDy=0;entryPerimeter=0;" edge="1" parent="1" source="h3l3YlsOue6Y38c3jv6M-17" target="h3l3YlsOue6Y38c3jv6M-17">
          <mxGeometry width="50" height="50" relative="1" as="geometry">
            <mxPoint x="820" y="940" as="sourcePoint" />
            <mxPoint x="870" y="890" as="targetPoint" />
          </mxGeometry>
        </mxCell>
        <mxCell id="JgO0-1MTpIiJ-sRc2Kr0-53" value="" style="endArrow=none;dashed=1;html=1;rounded=0;exitX=-0.001;exitY=0.346;exitDx=0;exitDy=0;exitPerimeter=0;entryX=0.997;entryY=0.346;entryDx=0;entryDy=0;entryPerimeter=0;" edge="1" parent="1" source="h3l3YlsOue6Y38c3jv6M-17" target="h3l3YlsOue6Y38c3jv6M-17">
          <mxGeometry width="50" height="50" relative="1" as="geometry">
            <mxPoint x="820" y="1300" as="sourcePoint" />
            <mxPoint x="870" y="1250" as="targetPoint" />
          </mxGeometry>
        </mxCell>
        <mxCell id="JgO0-1MTpIiJ-sRc2Kr0-54" value="[klickCalculateValues]" style="text;html=1;align=center;verticalAlign=middle;resizable=0;points=[];autosize=1;strokeColor=none;fillColor=none;" vertex="1" parent="1">
          <mxGeometry x="550" y="1258" width="140" height="30" as="geometry" />
        </mxCell>
        <mxCell id="JgO0-1MTpIiJ-sRc2Kr0-55" value="" style="endArrow=none;dashed=1;html=1;rounded=0;exitX=0.002;exitY=0.614;exitDx=0;exitDy=0;exitPerimeter=0;entryX=0.999;entryY=0.612;entryDx=0;entryDy=0;entryPerimeter=0;" edge="1" parent="1" source="h3l3YlsOue6Y38c3jv6M-17" target="h3l3YlsOue6Y38c3jv6M-17">
          <mxGeometry width="50" height="50" relative="1" as="geometry">
            <mxPoint x="880" y="1570" as="sourcePoint" />
            <mxPoint x="930" y="1520" as="targetPoint" />
          </mxGeometry>
        </mxCell>
        <mxCell id="JgO0-1MTpIiJ-sRc2Kr0-56" value="" style="endArrow=none;dashed=1;html=1;rounded=0;exitX=0.004;exitY=0.753;exitDx=0;exitDy=0;exitPerimeter=0;entryX=1;entryY=0.753;entryDx=0;entryDy=0;entryPerimeter=0;" edge="1" parent="1" source="h3l3YlsOue6Y38c3jv6M-17" target="h3l3YlsOue6Y38c3jv6M-17">
          <mxGeometry width="50" height="50" relative="1" as="geometry">
            <mxPoint x="880" y="1670" as="sourcePoint" />
            <mxPoint x="1120" y="1551" as="targetPoint" />
          </mxGeometry>
        </mxCell>
        <mxCell id="JgO0-1MTpIiJ-sRc2Kr0-57" value="" style="endArrow=none;dashed=1;html=1;rounded=0;exitX=0;exitY=0.871;exitDx=0;exitDy=0;exitPerimeter=0;entryX=0.998;entryY=0.871;entryDx=0;entryDy=0;entryPerimeter=0;" edge="1" parent="1" source="h3l3YlsOue6Y38c3jv6M-17" target="h3l3YlsOue6Y38c3jv6M-17">
          <mxGeometry width="50" height="50" relative="1" as="geometry">
            <mxPoint x="870" y="1760" as="sourcePoint" />
            <mxPoint x="920" y="1710" as="targetPoint" />
          </mxGeometry>
        </mxCell>
        <mxCell id="JgO0-1MTpIiJ-sRc2Kr0-58" value="" style="shape=umlDestroy;whiteSpace=wrap;html=1;strokeWidth=3;targetShapes=umlLifeline;" vertex="1" parent="1">
          <mxGeometry x="745" y="1860" width="30" height="30" as="geometry" />
        </mxCell>
        <mxCell id="JgO0-1MTpIiJ-sRc2Kr0-59" value="" style="shape=umlDestroy;whiteSpace=wrap;html=1;strokeWidth=3;targetShapes=umlLifeline;" vertex="1" parent="1">
          <mxGeometry x="900" y="1860" width="30" height="30" as="geometry" />
        </mxCell>
        <mxCell id="JgO0-1MTpIiJ-sRc2Kr0-60" value="" style="shape=umlDestroy;whiteSpace=wrap;html=1;strokeWidth=3;targetShapes=umlLifeline;" vertex="1" parent="1">
          <mxGeometry x="1085" y="1860" width="30" height="30" as="geometry" />
        </mxCell>
        <mxCell id="JgO0-1MTpIiJ-sRc2Kr0-61" value="" style="shape=umlDestroy;whiteSpace=wrap;html=1;strokeWidth=3;targetShapes=umlLifeline;" vertex="1" parent="1">
          <mxGeometry x="435" y="800" width="30" height="30" as="geometry" />
        </mxCell>
        <mxCell id="JgO0-1MTpIiJ-sRc2Kr0-62" value="[selectFaqs]" style="text;html=1;align=center;verticalAlign=middle;resizable=0;points=[];autosize=1;strokeColor=none;fillColor=none;" vertex="1" parent="1">
          <mxGeometry x="605" y="1468" width="90" height="30" as="geometry" />
        </mxCell>
        <mxCell id="JgO0-1MTpIiJ-sRc2Kr0-63" value="[selectDarkMode]" style="text;html=1;align=center;verticalAlign=middle;resizable=0;points=[];autosize=1;strokeColor=none;fillColor=none;" vertex="1" parent="1">
          <mxGeometry x="580" y="1578" width="120" height="30" as="geometry" />
        </mxCell>
        <mxCell id="JgO0-1MTpIiJ-sRc2Kr0-64" value="[selectHome]" style="text;html=1;align=center;verticalAlign=middle;resizable=0;points=[];autosize=1;strokeColor=none;fillColor=none;" vertex="1" parent="1">
          <mxGeometry x="595" y="1708" width="90" height="30" as="geometry" />
        </mxCell>
        <mxCell id="JgO0-1MTpIiJ-sRc2Kr0-65" value="" style="shape=umlDestroy;whiteSpace=wrap;html=1;strokeWidth=3;targetShapes=umlLifeline;" vertex="1" parent="1">
          <mxGeometry x="155" y="420" width="30" height="30" as="geometry" />
        </mxCell>
        <mxCell id="JgO0-1MTpIiJ-sRc2Kr0-66" value="" style="shape=umlDestroy;whiteSpace=wrap;html=1;strokeWidth=3;targetShapes=umlLifeline;" vertex="1" parent="1">
          <mxGeometry x="315" y="420" width="30" height="30" as="geometry" />
        </mxCell>
      </root>
    </mxGraphModel>
  </diagram>
</mxfile>
